<svg width="89" height="40" viewBox="0 0 89 40" fill="none" xmlns="http://www.w3.org/2000/svg">
    <path fill-rule="evenodd" clip-rule="evenodd" d="M19.9965 5.59272e-07C23.9526 -0.000934787 27.8202 1.17138 31.11 3.36867C34.3999 5.56597 36.9642 8.68954 38.4787 12.3443C39.9932 15.9991 40.3899 20.021 39.6185 23.9012C38.847 27.7814 36.9423 31.3457 34.145 34.1433C31.3477 36.9409 27.7836 38.8461 23.9035 39.618C20.0234 40.3899 16.0015 39.9937 12.3465 38.4796C8.69154 36.9656 5.56767 34.4016 3.36999 31.112C1.1723 27.8224 -0.000467436 23.955 1.3976e-07 19.9988C0.000626947 14.6954 2.10752 9.60935 5.85737 5.85905C9.60723 2.10874 14.693 0.00125443 19.9965 5.59272e-07ZM14.5298 21.226H25.7114V18.443H14.5298V21.226ZM28.1374 28.6481H25.5908V23.25H14.4092V28.6481H11.8697V11.1509H14.4092V16.4237H25.5908V11.1438H28.1374V28.6481Z" fill="white"/>
    <path d="M44.2963 13.0923H47.9163C49.283 13.0923 50.016 13.7638 50.016 14.7971C50.0136 15.0708 49.928 15.3373 49.7704 15.5612C49.6129 15.7851 49.3909 15.9557 49.134 16.0503C49.4491 16.1557 49.7213 16.3609 49.9094 16.6348C50.0975 16.9086 50.1914 17.2363 50.1767 17.5683C50.1767 18.6536 49.4248 19.3605 47.9778 19.3605H44.2963V13.0923ZM45.7693 14.3005V15.5372H47.6775C48.1882 15.5372 48.4885 15.3433 48.4885 14.92C48.4885 14.4968 48.1977 14.3005 47.6775 14.3005H45.7693ZM45.7693 16.7478V18.1499H47.7129C48.3301 18.1499 48.6587 17.9135 48.6587 17.4406C48.6587 16.9677 48.3395 16.7312 47.7129 16.7312L45.7693 16.7478Z" fill="white"/>
    <path d="M55.1209 16.5184V13.0923H56.6034V16.6154C56.6034 18.2209 55.5701 19.4929 53.61 19.4929C51.5978 19.4929 50.6 18.2398 50.6 16.6154V13.0923H52.1014V16.5184C52.1014 17.4808 52.6405 18.1239 53.61 18.1239C54.5794 18.1239 55.1209 17.4808 55.1209 16.5184Z" fill="white"/>
    <path d="M57.3459 13.0923H58.8473V19.3605H57.3459V13.0923Z" fill="white"/>
    <path d="M64.8247 19.3605H59.6229V13.0923H61.1243V18.0364H64.8247V19.3605Z" fill="white"/>
    <path d="M63.4818 13.0923H69.724V14.3998H67.3595V19.3653H65.8675V14.3998H63.503L63.4818 13.0923Z" fill="white"/>
    <path d="M71.1994 16.2252C71.1994 14.3005 72.6465 12.9858 74.5286 12.9858C76.4107 12.9858 77.8389 14.3005 77.8389 16.2252C77.8389 18.1499 76.3895 19.4669 74.5286 19.4669C72.6678 19.4669 71.1994 18.1428 71.1994 16.2252ZM76.3209 16.2252C76.3209 15.1754 75.6305 14.3336 74.5286 14.3336C73.4268 14.3336 72.7269 15.1706 72.7269 16.2252C72.7269 17.2797 73.4244 18.1168 74.5286 18.1168C75.6328 18.1168 76.3209 17.2868 76.3209 16.2252Z" fill="white"/>
    <path d="M84.4122 19.3889H83.1945L79.7731 15.043V19.3605H78.3071V13.0923H80.0119L82.9769 16.9322V13.0923H84.4122V19.3889Z" fill="white"/>
    <path d="M49.6542 25.0138H46.1311V27.8512H44.4074V20.6655H46.1311V23.5029H49.6542V20.6655H51.3685V27.863H49.6542V25.0138Z" fill="white"/>
    <path d="M52.2551 20.6655H58.2775V22.0842H53.9694V23.3823H56.5325V24.827H53.9694V26.3687H58.6629V27.8583H52.2551V20.6655Z" fill="white"/>
    <path d="M59.027 20.6655H62.0087C64.3093 20.6655 65.9503 21.9022 65.9503 24.2643C65.9503 26.5862 64.3093 27.863 62.0087 27.863H59.027V20.6655ZM60.7507 22.1457V26.3829H61.9779C63.3044 26.3829 64.1982 25.6026 64.1982 24.2548C64.1982 22.8645 63.3044 22.1268 61.9779 22.1268L60.7507 22.1457Z" fill="white"/>
    <path d="M66.4775 20.6655H72.4999V22.0842H68.2013V23.3823H70.7667V24.827H68.2013V26.3687H72.8948V27.8583H66.4775V20.6655Z" fill="white"/>
    <path d="M73.2612 20.6655H77.4771C79.0684 20.6655 80.0426 21.434 80.0426 22.926C80.0676 23.3647 79.9469 23.7994 79.6993 24.1624C79.4517 24.5255 79.0911 24.7965 78.6735 24.9334L80.2956 27.863H78.482L76.9616 25.1249H74.9826V27.863H73.2612V20.6655ZM74.9826 22.1457V23.6755H77.295C77.9335 23.6755 78.2787 23.4225 78.2787 22.926C78.2787 22.3774 77.9429 22.1457 77.295 22.1457H74.9826Z" fill="white"/>
    <path d="M85.6488 26.617H82.2226L81.6835 27.8631H79.9504L83.1046 20.6538H84.8685L88.0109 27.8631H86.1855L85.6488 26.617ZM85.0293 25.1771L83.9393 22.6305L82.8445 25.1771H85.0293Z" fill="white"/>
</svg>
