<svg width="121" height="32" viewBox="0 0 121 32" fill="none" xmlns="http://www.w3.org/2000/svg">
    <g clip-path="url(#clip0_753_4892)">
        <path d="M48.1738 19.8493H50.2483V8.93921H48.1738V13.4416H42.1809V8.93921H40.1218V19.8493H42.1809V15.2855H48.1738V19.8493Z" fill="#050505"/>
        <path d="M57.7321 18.6201V19.8494H59.6836V12.0741H57.7167V13.2419C57.5477 12.9192 56.764 11.905 55.1198 11.905C53.1068 11.905 51.4472 13.4417 51.4472 15.9618C51.4472 18.5126 53.1068 20.0185 55.1044 20.0185C56.8101 20.0185 57.5784 18.9428 57.7321 18.6201ZM57.7474 15.9618C57.7474 17.2833 56.9023 18.2974 55.6269 18.2974C54.3054 18.2974 53.4448 17.2833 53.4448 15.9618C53.4448 14.6402 54.3054 13.6261 55.6269 13.6261C56.9023 13.6261 57.7474 14.6402 57.7474 15.9618Z" fill="#050505"/>
        <path d="M64.9085 16.8069C65.7844 16.8991 66.061 17.2064 66.061 17.6827C66.061 18.1745 65.5385 18.5433 64.4629 18.5433C63.1414 18.5433 62.665 17.8518 62.5882 17.6674H60.483C60.6366 18.3896 61.574 20.0645 64.4629 20.0645C66.8293 20.0645 68.0586 19.0504 68.0586 17.6059C68.0586 16.0846 67.1981 15.2702 65.0929 15.0858L63.7714 14.9475C62.9877 14.8553 62.665 14.5634 62.665 14.1331C62.665 13.6721 63.1567 13.3494 64.0941 13.3494C65.2466 13.3494 65.7229 13.8872 65.8458 14.0563H67.9203C67.7359 13.3033 66.8908 11.8589 64.1094 11.8589C62.0196 11.8589 60.6827 12.7809 60.6827 14.2407C60.6827 15.7619 61.8352 16.5303 63.5409 16.6686C64.0787 16.73 64.3553 16.7608 64.9085 16.8069Z" fill="#050505"/>
        <path d="M70.9324 15.7005C70.9324 14.502 71.7007 13.6568 72.884 13.6568C74.0364 13.6568 74.774 14.4712 74.774 15.7005V19.8495H76.7563V15.3164C76.7563 13.3341 75.4655 11.905 73.514 11.905C72.1003 11.905 71.2244 12.827 70.9324 13.3802V8.53979H68.9809V19.8495H70.9324V15.7005Z" fill="#050505"/>
        <path d="M84.0096 18.574V19.6497C84.0096 20.9405 83.1951 21.678 81.7814 21.678C80.5214 21.678 80.0604 21.0327 79.9528 20.879H77.694C77.8169 21.4476 78.785 23.3069 81.7814 23.3069C84.5935 23.3069 85.9611 21.8163 85.9611 19.6804V12.0741H83.9942V13.2573C83.8405 12.9499 83.0107 11.905 81.3358 11.905C79.3074 11.905 77.6325 13.4109 77.6325 15.9464C77.6325 18.4665 79.3074 19.9877 81.3358 19.9877C83.0261 19.9877 83.8405 18.9121 84.0096 18.574ZM84.0249 15.9464C84.0249 17.2372 83.1644 18.2667 81.8429 18.2667C80.4907 18.2667 79.6301 17.2372 79.6301 15.9464C79.6301 14.6249 80.4907 13.6261 81.8429 13.6261C83.1644 13.6261 84.0249 14.6249 84.0249 15.9464Z" fill="#050505"/>
        <path d="M89.3881 15.7621C89.3881 14.5328 89.9874 13.9796 91.647 13.9796H93.7214V12.0281H91.9082C90.1872 12.0281 89.5879 12.9347 89.3881 13.3803V12.0742H87.4366V19.8496H89.3881V15.7621Z" fill="#050505"/>
        <path d="M100.114 18.6201V19.8494H102.066V12.0741H100.099V13.2419C99.9298 12.9192 99.1461 11.905 97.5019 11.905C95.4889 11.905 93.8293 13.4417 93.8293 15.9618C93.8293 18.5126 95.4889 20.0185 97.4865 20.0185C99.1922 20.0185 99.9605 18.9428 100.114 18.6201ZM100.13 15.9618C100.13 17.2833 99.2844 18.2974 98.009 18.2974C96.6875 18.2974 95.827 17.2833 95.827 15.9618C95.827 14.6402 96.6875 13.6261 98.009 13.6261C99.2844 13.6261 100.13 14.6402 100.13 15.9618Z" fill="#050505"/>
        <path d="M105.477 18.6662C105.631 18.9736 106.476 20.0185 108.166 20.0185C110.195 20.0185 111.854 18.5126 111.854 15.9618C111.854 13.4263 110.195 11.905 108.166 11.905C106.476 11.905 105.631 13.0114 105.493 13.3034V12.0741H103.541V23.1071H105.477V18.6662ZM105.462 15.9618C105.462 14.6249 106.323 13.6261 107.659 13.6261C109.012 13.6261 109.872 14.6249 109.872 15.9618C109.872 17.2833 109.012 18.2974 107.659 18.2974C106.323 18.2974 105.462 17.2833 105.462 15.9618Z" fill="#050505"/>
        <path d="M114.79 15.7005C114.79 14.502 115.558 13.6568 116.741 13.6568C117.894 13.6568 118.631 14.4712 118.631 15.7005V19.8495H120.614V15.3164C120.614 13.3341 119.323 11.905 117.371 11.905C115.958 11.905 115.082 12.827 114.79 13.3802V8.53979H112.838V19.8495H114.79V15.7005Z" fill="#050505"/>
        <mask id="mask0_753_4892" style="mask-type:luminance" maskUnits="userSpaceOnUse" x="0" y="0" width="33" height="33">
            <path d="M0.199951 0.0012207H32.2132V32.0012H0.199951V0.0012207Z" fill="white"/>
        </mask>
        <g mask="url(#mask0_753_4892)">
            <path fill-rule="evenodd" clip-rule="evenodd" d="M23.0174 13.6869L22.2636 18.3142H23.9976C25.1059 18.3142 26.0044 19.2128 26.0044 20.321C26.0044 21.4295 25.1059 22.3277 23.9976 22.3277H21.6096L20.1111 31.5256C27.0637 29.7825 32.2135 23.4939 32.2135 16.0007C32.2135 15.2146 32.154 14.4427 32.0447 13.6869H23.0174ZM9.44225 18.3142L10.1963 13.6869H8.55753C7.4493 13.6869 6.55079 12.7884 6.55079 11.6802C6.55079 10.572 7.4493 9.67346 8.55753 9.67346H10.85L12.3503 0.464527C5.37358 2.19083 0.199951 8.49024 0.199951 16.0007C0.199951 16.7866 0.25915 17.5587 0.368768 18.3142H9.44225ZM17.5432 22.3277H12.855L12.6819 23.3898C12.5213 24.3743 11.67 25.0742 10.7037 25.0742C10.5964 25.0742 10.4878 25.0654 10.3784 25.0479C9.28472 24.8695 8.54223 23.8383 8.72058 22.7444L8.7883 22.3277H1.50157C3.92471 27.9514 9.47762 31.9056 15.9672 32.0012L17.5432 22.3277ZM18.9509 13.6869H14.2627L13.5087 18.3142H18.1969L18.9509 13.6869ZM16.4922 0.0012207C22.9619 0.114852 28.4945 4.06312 30.9119 9.67346H23.6713L23.6929 9.54027C23.8712 8.44634 23.129 7.41513 22.0351 7.23678C20.9409 7.05943 19.9099 7.80092 19.7316 8.89485L19.6049 9.67346H14.9164L16.4922 0.0012207Z" fill="#050505"/>
        </g>
    </g>
    <defs>
        <clipPath id="clip0_753_4892">
            <rect width="120.8" height="32" fill="white" transform="translate(0.199951 0.0012207)"/>
        </clipPath>
    </defs>
</svg>
