<svg width="121" height="32" viewBox="0 0 121 32" fill="none" xmlns="http://www.w3.org/2000/svg">
    <g clip-path="url(#clip0_753_7817)">
        <path d="M48.1738 19.8491H50.2483V8.93896H48.1738V13.4413H42.1809V8.93896H40.1218V19.8491H42.1809V15.2853H48.1738V19.8491Z" fill="white"/>
        <path d="M57.7321 18.6199V19.8492H59.6836V12.0738H57.7167V13.2417C57.5477 12.919 56.764 11.9048 55.1198 11.9048C53.1068 11.9048 51.4472 13.4414 51.4472 15.9615C51.4472 18.5123 53.1068 20.0182 55.1044 20.0182C56.8101 20.0182 57.5784 18.9426 57.7321 18.6199ZM57.7474 15.9615C57.7474 17.283 56.9023 18.2972 55.6269 18.2972C54.3054 18.2972 53.4448 17.283 53.4448 15.9615C53.4448 14.64 54.3054 13.6258 55.6269 13.6258C56.9023 13.6258 57.7474 14.64 57.7474 15.9615Z" fill="white"/>
        <path d="M64.9085 16.8069C65.7844 16.8991 66.061 17.2064 66.061 17.6827C66.061 18.1745 65.5385 18.5433 64.4629 18.5433C63.1414 18.5433 62.665 17.8518 62.5882 17.6674H60.483C60.6366 18.3896 61.574 20.0645 64.4629 20.0645C66.8293 20.0645 68.0586 19.0504 68.0586 17.6059C68.0586 16.0846 67.1981 15.2702 65.0929 15.0858L63.7714 14.9475C62.9877 14.8553 62.665 14.5634 62.665 14.1331C62.665 13.6721 63.1567 13.3494 64.0941 13.3494C65.2466 13.3494 65.7229 13.8872 65.8458 14.0563H67.9203C67.7359 13.3033 66.8908 11.8589 64.1094 11.8589C62.0196 11.8589 60.6827 12.7809 60.6827 14.2407C60.6827 15.7619 61.8352 16.5303 63.5409 16.6686C64.0787 16.73 64.3553 16.7608 64.9085 16.8069Z" fill="white"/>
        <path d="M70.9324 15.7003C70.9324 14.5017 71.7007 13.6566 72.884 13.6566C74.0364 13.6566 74.774 14.471 74.774 15.7003V19.8492H76.7563V15.3161C76.7563 13.3339 75.4655 11.9048 73.514 11.9048C72.1003 11.9048 71.2244 12.8268 70.9324 13.38V8.53955H68.9809V19.8492H70.9324V15.7003Z" fill="white"/>
        <path d="M84.0096 18.5738V19.6494C84.0096 20.9402 83.1951 21.6778 81.7814 21.6778C80.5214 21.6778 80.0604 21.0324 79.9528 20.8788H77.694C77.8169 21.4473 78.785 23.3066 81.7814 23.3066C84.5935 23.3066 85.9611 21.8161 85.9611 19.6802V12.0738H83.9942V13.257C83.8405 12.9497 83.0107 11.9048 81.3358 11.9048C79.3074 11.9048 77.6325 13.4107 77.6325 15.9461C77.6325 18.4662 79.3074 19.9875 81.3358 19.9875C83.0261 19.9875 83.8405 18.9119 84.0096 18.5738ZM84.0249 15.9461C84.0249 17.2369 83.1644 18.2665 81.8429 18.2665C80.4907 18.2665 79.6301 17.2369 79.6301 15.9461C79.6301 14.6246 80.4907 13.6258 81.8429 13.6258C83.1644 13.6258 84.0249 14.6246 84.0249 15.9461Z" fill="white"/>
        <path d="M89.3881 15.7619C89.3881 14.5326 89.9874 13.9794 91.647 13.9794H93.7214V12.0278H91.9082C90.1872 12.0278 89.5879 12.9344 89.3881 13.3801V12.0739H87.4366V19.8493H89.3881V15.7619Z" fill="white"/>
        <path d="M100.114 18.6199V19.8492H102.066V12.0738H100.099V13.2417C99.9298 12.919 99.1461 11.9048 97.5019 11.9048C95.4889 11.9048 93.8293 13.4414 93.8293 15.9615C93.8293 18.5123 95.4889 20.0182 97.4865 20.0182C99.1922 20.0182 99.9605 18.9426 100.114 18.6199ZM100.13 15.9615C100.13 17.283 99.2844 18.2972 98.009 18.2972C96.6875 18.2972 95.827 17.283 95.827 15.9615C95.827 14.64 96.6875 13.6258 98.009 13.6258C99.2844 13.6258 100.13 14.64 100.13 15.9615Z" fill="white"/>
        <path d="M105.477 18.666C105.631 18.9733 106.476 20.0182 108.166 20.0182C110.195 20.0182 111.854 18.5123 111.854 15.9615C111.854 13.4261 110.195 11.9048 108.166 11.9048C106.476 11.9048 105.631 13.0112 105.493 13.3031V12.0738H103.541V23.1069H105.477V18.666ZM105.462 15.9615C105.462 14.6246 106.323 13.6258 107.659 13.6258C109.012 13.6258 109.872 14.6246 109.872 15.9615C109.872 17.283 109.012 18.2972 107.659 18.2972C106.323 18.2972 105.462 17.283 105.462 15.9615Z" fill="white"/>
        <path d="M114.79 15.7003C114.79 14.5017 115.558 13.6566 116.741 13.6566C117.894 13.6566 118.631 14.471 118.631 15.7003V19.8492H120.614V15.3161C120.614 13.3339 119.323 11.9048 117.371 11.9048C115.958 11.9048 115.082 12.8268 114.79 13.38V8.53955H112.838V19.8492H114.79V15.7003Z" fill="white"/>
        <mask id="mask0_753_7817" style="mask-type:luminance" maskUnits="userSpaceOnUse" x="0" y="0" width="33" height="33">
            <path d="M0.199951 0.000976562H32.2132V32.001H0.199951V0.000976562Z" fill="white"/>
        </mask>
        <g mask="url(#mask0_753_7817)">
            <path fill-rule="evenodd" clip-rule="evenodd" d="M23.0174 13.6867L22.2636 18.314H23.9976C25.1059 18.314 26.0044 19.2125 26.0044 20.3207C26.0044 21.4292 25.1059 22.3275 23.9976 22.3275H21.6096L20.1111 31.5254C27.0637 29.7823 32.2135 23.4936 32.2135 16.0005C32.2135 15.2143 32.154 14.4425 32.0447 13.6867H23.0174ZM9.44225 18.314L10.1963 13.6867H8.55753C7.4493 13.6867 6.55079 12.7882 6.55079 11.68C6.55079 10.5717 7.4493 9.67322 8.55753 9.67322H10.85L12.3503 0.464283C5.37358 2.19058 0.199951 8.48999 0.199951 16.0005C0.199951 16.7864 0.25915 17.5585 0.368768 18.314H9.44225ZM17.5432 22.3275H12.855L12.6819 23.3895C12.5213 24.3741 11.67 25.074 10.7037 25.074C10.5964 25.074 10.4878 25.0652 10.3784 25.0476C9.28472 24.8693 8.54223 23.8381 8.72058 22.7441L8.7883 22.3275H1.50157C3.92471 27.9511 9.47762 31.9054 15.9672 32.001L17.5432 22.3275ZM18.9509 13.6867H14.2627L13.5087 18.314H18.1969L18.9509 13.6867ZM16.4922 0.000976562C22.9619 0.114608 28.4945 4.06287 30.9119 9.67322H23.6713L23.6929 9.54002C23.8712 8.4461 23.129 7.41488 22.0351 7.23653C20.9409 7.05919 19.9099 7.80068 19.7316 8.8946L19.6049 9.67322H14.9164L16.4922 0.000976562Z" fill="white"/>
        </g>
    </g>
    <defs>
        <clipPath id="clip0_753_7817">
            <rect width="120.8" height="32" fill="white" transform="translate(0.199951 0.000976562)"/>
        </clipPath>
    </defs>
</svg>
